<?xml version="1.0" encoding="utf-8"?>
<!-- Generator: Adobe Illustrator 21.1.0, SVG Export Plug-In . SVG Version: 6.00 Build 0)  -->
<svg xmlns:xlink="http://www.w3.org/1999/xlink" version="1.1" id="Слой_1" xmlns="http://www.w3.org/2000/svg" x="0px" y="0px"
	 viewBox="0 0 199.6 199.8" style="enable-background:new 0 0 199.6 199.8;" xml:space="preserve">
<style type="text/css">
	.st0{fill:#3E779D;}
	.st1{fill:#FEFEFE;}
</style>
<g>
	<path class="st0" d="M99.7,0.3c0.2,0,0.4,0,0.6,0c4-0.1,8,0.3,12,0.7c4,0.5,7.8,1.2,11.7,2.1c5.4,1.3,10.6,3.1,15.7,5.3
		c5.9,2.6,11.5,5.6,16.8,9.3c3,2.1,5.8,4.4,8.6,6.7c2.6,2.3,5.2,4.6,7.6,7.2c2.7,3,5.3,6.1,7.8,9.4c3.9,5.2,7.2,10.8,9.9,16.7
		c2.3,5,4.4,10,5.6,15.4c0.9,4.1,2,8.2,2.8,12.3c0.4,2,0.2,4.2,0.5,6.2c0.7,4.1,0.3,8.2,0.3,12.3c0,2.8-0.6,5.6-0.7,8.3
		c-0.2,4.2-1.2,8.3-2.2,12.3c-1,4.1-2.4,8.1-3.9,12c-1.4,3.7-3.1,7.3-5,10.8c-2.5,4.8-5.5,9.3-8.8,13.6c-3.3,4.3-6.9,8.2-10.8,11.9
		c-3,2.8-6.1,5.3-9.4,7.8c-5.2,3.9-10.8,7.2-16.7,9.9c-5,2.3-10,4.4-15.4,5.6c-4.1,0.9-8.2,2-12.3,2.8c-2,0.4-4.1,0.2-6.2,0.5
		c-4.8,0.8-9.5,0.3-14.3,0.3c-2,0-4.1-0.5-6.1-0.7c-2-0.3-4.1-0.5-6.1-0.9c-3-0.6-6.1-1.2-9.1-2c-7.3-1.9-14.2-4.9-20.9-8.5
		c-4.3-2.3-8.4-5-12.3-7.9c-5-3.7-9.4-8-13.6-12.5c-4.2-4.5-8-9.4-11.1-14.8c-2-3.4-3.9-6.8-5.5-10.3c-3-6.4-5.4-13-6.7-20
		c-0.5-2.5-1.1-5-1.6-7.6c-0.3-1.8-0.2-3.7-0.5-5.6c-0.8-4.9-0.3-9.8-0.3-14.7c0-2.1,0.5-4.2,0.7-6.3c0.3-2,0.5-4.1,0.9-6.1
		c0.6-3,1.2-6.1,2-9.1c1.9-7.3,4.9-14.2,8.5-20.9c2.3-4.3,5-8.4,7.9-12.3c3.7-5,8-9.4,12.5-13.6c4.3-4,9.1-7.6,14.1-10.7
		c5.5-3.4,11.2-6.2,17.2-8.5c4-1.5,8.1-2.8,12.3-3.8c3.7-0.8,7.3-1.7,11.1-1.9c4.1-0.3,8.2-0.7,12.4-1.1C99.7,0.1,99.7,0.2,99.7,0.3
		z M80.3,70.7c0.6,0,1.2,0,1.8,0c3.3,0.2,5.1,1.8,5.2,4.6c0.1,6,0.1,12-0.8,17.9c-0.3,1.8-0.9,3.6-1.6,5.3c-0.7,1.6-2.2,1.8-3.4,0.5
		c-1.4-1.4-2.9-2.9-4-4.5c-4.1-6.4-8.1-12.9-12.2-19.4c-1.8-2.9-3.5-5.9-6.2-8.1c-1-0.1-2-0.4-3.1-0.4c-1,0-2,0.3-3,0.3
		c-4.2,0-8.4,0-12.6,0c-2,0-3,1-2.9,2.9c0.1,1.1,0.3,2.2,0.8,3.3c1.5,3.7,3.2,7.4,4.7,11.2c2.5,6.3,5.7,12.3,9.3,18.1
		c5,7.9,10.8,15.2,17.8,21.5c2.1,1.9,4.2,3.8,6.4,5.5c3,2.5,6.4,4.4,10,5.7c5.5,2.1,11.3,2.6,17.1,2.5c1.8,0,3.5-0.8,4.1-3.2
		c0.3-1.4,0.6-2.9,0.6-4.3c-0.1-3.2,1.2-5.6,3.6-7.5c2.2-1.7,4.8-2.5,7.4-0.8c2.1,1.4,4.3,2.7,6.2,4.3c3.2,2.8,6.3,5.7,9.2,8.8
		c1.9,2,4,2.8,6.6,2.7c3.6-0.1,7.2-0.1,10.7,0c1.8,0,3.5-0.3,5.1-0.9c4.5-1.6,6.5-6.9,4.3-10.6c-1.1-1.9-2.4-3.7-3.8-5.3
		c-1.7-2.1-3.8-3.8-5.4-6c-1.7-2.2-3.9-3.8-6-5.5c-1.1-0.9-2.2-1.8-3.2-2.8c-0.9-0.9-1.4-1.9-0.7-3.2c0.5-0.9,0.8-2,1.4-2.8
		c3.2-4.6,6.4-9.1,9.6-13.7c2.9-4.1,5.7-8.3,8-12.9c0.7-1.4,1.3-2.9,0.7-4.8c-1.2-0.5-2.4-1.2-3.8-1.6c-5.5-1.6-11.2-2.6-17-2.3
		c-2.1,0.1-3.9,0.8-5.2,2.8c-4.2,6.6-8.6,12.9-11.8,20.1c-1,2.3-2.3,4.5-3.2,6.9c-0.7,1.9-1.8,3.4-3.2,4.6c-2.5,0.5-3.6-0.2-4.5-2.9
		c-0.8-2.4-1-5-1.1-7.5c-0.1-5.2,0.2-10.5,0.3-15.7c0-0.8,0.1-1.6,0-2.4c-0.2-1.6-0.4-3.3-0.8-4.9c-0.5-2-2.3-3.8-5.2-3.8
		c-2.4,0.1-4.7,0.1-7.1,0c-3-0.1-5.9,0-8.7,0.8c-4.1,1.2-8,2.9-10.8,6.4c-0.5,0.4-0.9,0.8-1.4,1.1c0.1,0.2,0.2,0.3,0.3,0.5
		C79.4,71.1,79.9,70.9,80.3,70.7z"/>
	<path class="st1" d="M80,69.7c2.8-3.5,6.7-5.2,10.8-6.4c2.8-0.8,5.8-0.9,8.7-0.8c2.4,0.1,4.7,0.1,7.1,0c2.9-0.1,4.7,1.7,5.2,3.8
		c0.4,1.6,0.6,3.3,0.8,4.9c0.1,0.8,0,1.6,0,2.4c-0.1,5.2-0.4,10.5-0.3,15.7c0,2.5,0.2,5,1.1,7.5c0.9,2.7,2,3.4,4.5,2.9
		c1.4-1.2,2.5-2.7,3.2-4.6c0.9-2.4,2.1-4.6,3.2-6.9c3.2-7.1,7.6-13.5,11.8-20.1c1.3-2,3.1-2.7,5.2-2.8c5.8-0.3,11.4,0.7,17,2.3
		c1.3,0.4,2.6,1.1,3.8,1.6c0.6,1.8,0,3.3-0.7,4.8c-2.3,4.5-5,8.8-8,12.9c-3.2,4.5-6.5,9.1-9.6,13.7c-0.6,0.9-0.9,1.9-1.4,2.8
		c-0.7,1.3-0.2,2.4,0.7,3.2c1,1,2.1,1.9,3.2,2.8c2.1,1.7,4.3,3.3,6,5.5c1.6,2.1,3.7,3.9,5.4,6c1.4,1.7,2.8,3.4,3.8,5.3
		c2.1,3.8,0.2,9-4.3,10.6c-1.6,0.6-3.3,0.9-5.1,0.9c-3.6-0.1-7.2-0.1-10.7,0c-2.6,0-4.7-0.7-6.6-2.7c-2.9-3.1-6-6-9.2-8.8
		c-1.9-1.6-4.1-3-6.2-4.3c-2.7-1.7-5.2-0.9-7.4,0.8c-2.4,1.8-3.7,4.3-3.6,7.5c0.1,1.4-0.2,2.9-0.6,4.3c-0.6,2.4-2.3,3.1-4.1,3.2
		c-5.8,0.1-11.6-0.4-17.1-2.5c-3.6-1.4-7-3.3-10-5.7c-2.2-1.8-4.3-3.6-6.4-5.5c-6.9-6.3-12.7-13.6-17.8-21.5
		c-3.6-5.7-6.8-11.7-9.3-18.1c-1.5-3.8-3.2-7.4-4.7-11.2c-0.4-1-0.7-2.2-0.8-3.3c-0.1-2,0.9-2.9,2.9-2.9c4.2,0,8.4,0,12.6,0
		c1,0,2-0.3,3-0.3c1,0,2.1,0.3,3.1,0.4c2.8,2.2,4.4,5.2,6.2,8.1c4.1,6.5,8.1,13,12.2,19.4c1.1,1.7,2.6,3.1,4,4.5
		c1.2,1.3,2.7,1.1,3.4-0.5c0.7-1.7,1.4-3.5,1.6-5.3c0.9-5.9,1-11.9,0.8-17.9c-0.1-2.8-1.8-4.4-5.2-4.6c-0.6,0-1.2,0-1.8,0
		C80.2,70.4,80.1,70.1,80,69.7z"/>
</g>
</svg>
