<?xml version="1.0" encoding="utf-8"?>
<!-- Generator: Adobe Illustrator 21.1.0, SVG Export Plug-In . SVG Version: 6.00 Build 0)  -->
<svg xmlns:xlink="http://www.w3.org/1999/xlink" version="1.1" id="Слой_1" xmlns="http://www.w3.org/2000/svg" x="0px"
     y="0px"
     viewBox="0 0 280 280" enable-background="new 0 0 280 280" xml:space="preserve">
<g>
	<circle fill="#EA2101" cx="140" cy="140" r="140"/>
</g>
    <g>
	<path fill="#FFFFFF" d="M159.7,149.1h-18.2l-30,60.3H93.9l32.9-63.8c-8-2.4-14.1-7-18.4-13.8c-4.2-6.8-6.4-16.1-6.4-28
		c0-8,1-14.8,2.9-20.4c1.9-5.6,4.6-10.2,8.1-13.9c3.5-3.6,7.7-6.3,12.5-8c4.9-1.7,10.2-2.5,16.1-2.5h32.3v150.4h-14.4V149.1z
		 M159.7,131.2V76.8h-17.9c-3.6,0-7,0.5-9.9,1.4c-3,0.9-5.6,2.4-7.7,4.5c-2.2,2.1-3.9,4.9-5.1,8.3c-1.2,3.4-1.8,7.7-1.8,12.7
		c0,9.5,2,16.5,5.9,20.9c3.9,4.4,9.7,6.6,17.1,6.6H159.7z"/>
</g>
</svg>
